<svg width="267.15089416503906" height="267.15089416503906" viewBox="0 0 360.93750000000006 360.93750000000006" class="looka-1j8o68f"><defs id="SvgjsDefs1786"><linearGradient id="SvgjsLinearGradient1795"><stop id="SvgjsStop1796" stop-color="#905e26" offset="0"></stop><stop id="SvgjsStop1797" stop-color="#f5ec9b" offset="0.5"></stop><stop id="SvgjsStop1798" stop-color="#905e26" offset="1"></stop></linearGradient><linearGradient id="SvgjsLinearGradient1799"><stop id="SvgjsStop1800" stop-color="#905e26" offset="0"></stop><stop id="SvgjsStop1801" stop-color="#f5ec9b" offset="0.5"></stop><stop id="SvgjsStop1802" stop-color="#905e26" offset="1"></stop></linearGradient><linearGradient id="SvgjsLinearGradient1803"><stop id="SvgjsStop1804" stop-color="#b98947" offset="0"></stop><stop id="SvgjsStop1805" stop-color="#faf0a1" offset="1"></stop></linearGradient></defs><g id="SvgjsG1787" featurekey="rootContainer" transform="matrix(3.450645114138945,0,0,3.450645114138945,0.00002151354990444583,0.00002151354990444583)" fill="url(#SvgjsLinearGradient1795)"><path xmlns="http://www.w3.org/2000/svg" d="M52.3 104.6a52.3 52.3 0 1 1 52.3-52.3 52.4 52.4 0 0 1-52.3 52.3zm0-102.3a50 50 0 1 0 50 50 50 50 0 0 0-50-50z"></path></g><g id="SvgjsG1788" featurekey="symbolFeature-0" transform="matrix(2.029323485941204,0,0,2.029323485941204,82.59246106294009,48.76541211247037)" fill="url(#SvgjsLinearGradient1799)"><path xmlns="http://www.w3.org/2000/svg" fill="none" stroke="url(#SvgjsLinearGradient1799)" d="M52.049,41.606c-8.521-3.621-9.957-5.487-9.957-8.299c0-2.723,1.938-5.632,7.381-5.632  c5.326,0,8.748,1.961,10.395,2.902l2.391,1.372l3.998-10.527L64.5,20.428c-3.271-1.855-6.805-2.965-10.75-3.368V8H43.256v9.621  c-8.428,2.124-13.769,8.503-13.769,16.696c0,10.263,8.411,14.943,16.618,18.159c7.826,3.173,8.908,6.076,8.908,8.743  c0,3.973-3.447,6.643-8.571,6.643c-4.023,0-8.445-1.331-11.836-3.561l-2.501-1.644l-3.816,10.646l1.45,1.037  c3.224,2.303,8.04,3.897,12.973,4.352V88h10.491v-9.975c8.758-2.14,14.508-8.979,14.508-17.539  C67.711,49.479,59.775,44.759,52.049,41.606z"></path></g><g id="SvgjsG1789" featurekey="nameFeature-0" transform="matrix(0.8428860461434324,0,0,0.8428860461434324,77.57248809064626,236.88536825011758)" fill="url(#SvgjsLinearGradient1803)"><path d="M16.28 30.4 l6.4 0 l0 4.6 c0 2.76 -2.24 5 -5 5 l-9.8 0 c-2.76 0 -5 -2.24 -5 -5 l0 -18 c0 -2.76 2.24 -5 5 -5 l9.8 0 c2.76 0 5 2.24 5 5 l0 4.6 l-6.4 0 l0 -3.16 l-7 0 l0 15.16 l7 0 l0 -3.2 z M43.24 12 c2.76 0 5 2.24 5 5 l0 10.52 c0 2.12 -1.32 3.92 -3.16 4.64 l3.16 7.84 l-6.8 0 l-3.04 -7.48 l-3.56 0 l0 7.48 l-6.4 0 l0 -28 l14.8 0 z M40.52 26.08 c0.72 0 1.32 -0.56 1.32 -1.28 l0 -5.08 c0 -0.72 -0.6 -1.28 -1.32 -1.28 l-5.68 0 l0 7.64 l5.68 0 z M63.92 22.2 l4.6 -10.2 l6.4 0 l-7.8 17.32 l0 10.68 l-6.4 0 l0 -10.68 l-7.8 -17.32 l6.44 0 z M95.52 12 c2.76 0 5.04 2.24 5.04 5 l0 10.52 c0 2.76 -2.28 4.96 -5.04 4.96 l-8.44 0 l0 7.52 l-6.4 0 l0 -28 l14.84 0 z M94.08 26.08 l0 -7.64 l-7 0 l0 7.64 l7 0 z M106.32 12 l19.84 0 l0 6.44 l-6.72 0 l0 21.56 l-6.4 0 l0 -21.56 l-6.72 0 l0 -6.44 z M146.76 12 c2.72 0 5.04 2.24 5.04 5 l-0.08 18.04 c0 2.76 -2.24 4.96 -5 4.96 l-9.84 0 c-2.72 0 -4.96 -2.2 -4.96 -4.96 l0 -18.04 c0 -2.76 2.24 -5 4.96 -5 l9.88 0 z M145.32 33.6 l0 -15.16 l-7 0 l0 15.16 l7 0 z M177.07999999999998 12 l-6.6 9.96 l7.2 18.04 l-6.8 0 l-4.64 -11.6 l-2.36 3.56 l0 8.04 l-6.4 0 l0 -28 l6.4 0 l0 9.64 l6.4 -9.64 l6.8 0 z M189.04 12 l0 28 l-6.4 0 l0 -28 l6.4 0 z M208.2 12 l6.4 0 l0 28 l-6.4 0 l-7 -14.56 l0 14.56 l-6.4 0 l0 -28 l6.4 0 l7 14.6 l0 -14.6 z M240.16 18.44 l-13.4 0 l0 15.16 l7 0 l0 -4.4 l-3.52 0 l0 -6.4 l9.92 0 l0 12.2 c0 2.76 -2.24 5 -5 5 l-9.84 0 c-2.76 0 -4.96 -2.24 -4.96 -5 l0 -18 c0 -2.76 2.2 -5 4.96 -5 l14.84 0 l0 6.44 z"></path></g><g id="SvgjsG1790" featurekey="sloganFeature-0" transform="matrix(0.7108332972349742,0,0,0.7108332972349742,98.50753452409788,281.730841617822)" fill="#ffffff"><path d="M4.043 18.2422 l4.7168 0 l0 1.7578 l-6.6602 0 l0 -13.809 l1.9434 0 l0 12.051 z M18.906275 7.939 l-5.5273 0 l0 4.2969 l4.873 0 l0 1.7383 l-4.873 0 l0 4.2676 l5.5273 0 l0 1.7578 l-7.5098 0 l0 -13.809 l7.5098 0 l0 1.748 z M29.55075625 6.191000000000001 l0 1.748 l-3.4961 0 l0 12.061 l-1.9238 0 l0 -12.061 l-3.5059 0 l0 -1.748 l8.9258 0 z M32.480425 12.5 l-0.12695 -6.3086 l1.7676 0 l-0.18555 6.3086 l-1.4551 0 z M42.7929875 20.18555 c-2.8809 0 -4.9902 -1.377 -5.459 -3.7207 l1.9824 -0.46875 c0.3125 1.6113 1.709 2.5391 3.5449 2.5391 c1.4746 0 2.8906 -0.60547 2.8613 -2.2656 c-0.019531 -1.6406 -1.7969 -2.0898 -3.6816 -2.6074 c-2.1387 -0.58594 -4.2773 -1.2598 -4.2773 -3.7988 c0 -2.5684 2.1191 -3.8574 4.6289 -3.8574 c2.4316 0 4.6191 1.0254 5.1367 3.3984 l-1.8848 0.47852 c-0.3418 -1.5332 -1.6211 -2.2168 -3.1641 -2.2168 c-1.3867 0 -2.7637 0.60547 -2.7637 2.1777 c0 1.4258 1.543 1.8457 3.291 2.3145 c2.1973 0.5957 4.7168 1.2793 4.7168 4.0527 c0 2.793 -2.3438 3.9746 -4.9316 3.9746 z M61.435571875 6.191000000000001 c2.5293 0 4.1602 1.9141 4.1602 4.2773 c0 2.3926 -1.6309 4.2383 -4.1602 4.2383 l-3.3789 0 l0 5.293 l-1.9434 0 l0 -13.809 l5.3223 0 z M61.142571875 13.0273 c1.6211 0 2.5293 -1.0449 2.5293 -2.5879 c0 -1.4844 -0.9082 -2.5781 -2.5293 -2.5781 l-3.0859 0 l0 5.166 l3.0859 0 z M76.005878125 20 l-3.5742 -6.2109 l-1.9336 0 l0 6.2109 l-1.9434 0 l0 -13.809 l4.6484 0 c2.8906 0 4.209 1.7676 4.209 3.9355 c0 1.9238 -1.1328 3.2617 -3.0273 3.584 l3.8965 6.2891 l-2.2754 0 z M70.498078125 7.871 l0 4.4336 l2.4414 0 c1.7969 0 2.6074 -0.89844 2.6074 -2.207 c0 -1.2891 -0.81055 -2.2266 -2.6074 -2.2266 l-2.4414 0 z M87.060571875 20.18555 c-3.916 0 -6.9043 -2.6953 -6.9043 -7.0996 c0 -4.3945 2.9883 -7.0801 6.9043 -7.0801 c3.8965 0 6.8945 2.6855 6.8945 7.0801 c0 4.4043 -2.998 7.0996 -6.8945 7.0996 z M87.060571875 18.3594 c2.7637 0 4.9512 -1.9141 4.9512 -5.2734 c0 -3.3301 -2.1875 -5.2441 -4.9512 -5.2441 c-2.7734 0 -4.9707 1.9141 -4.9707 5.2441 c0 3.3594 2.1973 5.2734 4.9707 5.2734 z M104.78515625 7.939 l-5.6055 0 l0 4.2871 l4.873 0 l0 1.748 l-4.873 0 l0 6.0254 l-1.9824 0 l0 -13.809 l7.5879 0 l0 1.748 z M107.646475 20 l0 -13.809 l1.9434 0 l0 13.809 l-1.9434 0 z M121.15231875 6.191000000000001 l0 1.748 l-3.4961 0 l0 12.061 l-1.9238 0 l0 -12.061 l-3.5059 0 l0 -1.748 l8.9258 0 z M136.3281 6.191000000000001 l0 1.748 l-3.4961 0 l0 12.061 l-1.9238 0 l0 -12.061 l-3.5059 0 l0 -1.748 l8.9258 0 z M144.90236875 20.18555 c-3.916 0 -6.9043 -2.6953 -6.9043 -7.0996 c0 -4.3945 2.9883 -7.0801 6.9043 -7.0801 c3.8965 0 6.8945 2.6855 6.8945 7.0801 c0 4.4043 -2.998 7.0996 -6.8945 7.0996 z M144.90236875 18.3594 c2.7637 0 4.9512 -1.9141 4.9512 -5.2734 c0 -3.3301 -2.1875 -5.2441 -4.9512 -5.2441 c-2.7734 0 -4.9707 1.9141 -4.9707 5.2441 c0 3.3594 2.1973 5.2734 4.9707 5.2734 z M160.917953125 20.18555 c-3.8672 0 -6.8359 -2.6465 -6.8359 -7.0508 c0 -4.4434 2.9883 -7.1289 6.9043 -7.1289 c2.5391 0 4.7168 1.1133 5.9082 3.2227 l-1.7188 0.91797 c-0.86914 -1.6211 -2.4219 -2.373 -4.1895 -2.373 c-2.793 0 -4.9512 1.8945 -4.9512 5.3223 c0 3.3789 2.1094 5.3418 5.0195 5.3418 c2.3438 0 4.1797 -1.3184 4.502 -3.9355 l-4.5117 0 l0 -1.6211 l6.3965 0 l0 7.1191 l-1.582 0 l0 -2.4805 c-0.9082 1.6895 -2.6172 2.666 -4.9414 2.666 z M178.486353125 7.939 l-5.5273 0 l0 4.2969 l4.873 0 l0 1.7383 l-4.873 0 l0 4.2676 l5.5273 0 l0 1.7578 l-7.5098 0 l0 -13.809 l7.5098 0 l0 1.748 z M189.130834375 6.191000000000001 l0 1.748 l-3.4961 0 l0 12.061 l-1.9238 0 l0 -12.061 l-3.5059 0 l0 -1.748 l8.9258 0 z M200.508203125 6.191000000000001 l1.9434 0 l0 13.809 l-1.9434 0 l0 -6.0547 l-6.7871 0 l0 6.0547 l-1.9629 0 l0 -13.809 l1.9629 0 l0 6.0254 l6.7871 0 l0 -6.0254 z M214.169946875 7.939 l-5.5273 0 l0 4.2969 l4.873 0 l0 1.7383 l-4.873 0 l0 4.2676 l5.5273 0 l0 1.7578 l-7.5098 0 l0 -13.809 l7.5098 0 l0 1.748 z M224.912128125 20 l-3.5742 -6.2109 l-1.9336 0 l0 6.2109 l-1.9434 0 l0 -13.809 l4.6484 0 c2.8906 0 4.209 1.7676 4.209 3.9355 c0 1.9238 -1.1328 3.2617 -3.0273 3.584 l3.8965 6.2891 l-2.2754 0 z M219.404328125 7.871 l0 4.4336 l2.4414 0 c1.7969 0 2.6074 -0.89844 2.6074 -2.207 c0 -1.2891 -0.81055 -2.2266 -2.6074 -2.2266 l-2.4414 0 z"></path></g></svg>